# xmcd
#
# Track frame offsets:
#	150
#	19148
#	34552
#	44552
#	52275
#	61928
#	73964
#	94321
#	116863
#	128807
#	155486
#	164024
#	170975
#	183644
#
# Disc length: 2674 seconds
# Revision: 1
# Processed by: cddbd v1.5.2PL0 Copyright (c) Steve Scherf et al.
# Submitted via: dBpowerAMP V12.0
#
DISCID=db0a700e
DTITLE=Krüger Brothers - The Suite, Volume One
DYEAR=2007
DGENRE=Country
TTITLE0=Wind in the Wheat
TTITLE1=Choices
TTITLE2=Buon Fresco
TTITLE3=Theme from 'Sarah'
TTITLE4=In the Dome of the Forest
TTITLE5=Roll Away
TTITLE6=High Up in the Sky
TTITLE7=Winterport
TTITLE8=Shower
TTITLE9=Premonitions I-IV
TTITLE10=The Gentle Touch of Falling Leaves
TTITLE11=Private Angel
TTITLE12=Theme from 'Pacific Morning'
TTITLE13=I Know Some Day
EXTD=
EXTT0=
EXTT1=
EXTT2=
EXTT3=
EXTT4=
EXTT5=
EXTT6=
EXTT7=
EXTT8=
EXTT9=
EXTT10=
EXTT11=
EXTT12=
EXTT13=
PLAYORDER=
